<?xml version="1.0" encoding="utf-8"?>
<!-- Generator: Adobe Illustrator 16.0.0, SVG Export Plug-In . SVG Version: 6.00 Build 0)  -->
<!DOCTYPE svg PUBLIC "-//W3C//DTD SVG 1.1//EN" "http://www.w3.org/Graphics/SVG/1.1/DTD/svg11.dtd">
<svg version="1.1" id="Layer_1" xmlns="http://www.w3.org/2000/svg" xmlns:xlink="http://www.w3.org/1999/xlink" x="0px" y="0px"
	 width="152.555px" height="42.466px" viewBox="0 0 152.555 42.466" enable-background="new 0 0 152.555 42.466"
	 xml:space="preserve">
<g>
	<polygon fill="#FFFFFF" points="91.818,35.127 91.818,22.127 83.941,15.231 83.941,42.466 115.057,42.466 106.67,35.127 	"/>
	<path fill="#FFFFFF" d="M150.971,12.75c-1.062-2.591-2.557-4.829-4.475-6.718c-1.922-1.883-4.246-3.357-6.959-4.43
		C136.828,0.536,133.82,0,130.52,0H92.354l8.676,7.593h22.9V7.581h6.59c1.889,0,3.568,0.315,5.045,0.945
		c1.475,0.633,2.723,1.533,3.744,2.711c1.023,1.178,1.805,2.606,2.346,4.297c0.549,1.691,0.816,3.584,0.816,5.684
		c0,2.12-0.268,4.025-0.816,5.716c-0.541,1.687-1.322,3.122-2.346,4.298c-1.021,1.18-2.27,2.079-3.744,2.711
		c-1.049,0.448-2.209,0.729-3.459,0.859l7.08,6.196c0.115-0.044,0.238-0.074,0.352-0.12c2.713-1.059,5.037-2.533,6.959-4.426
		c1.918-1.896,3.412-4.146,4.475-6.737c1.057-2.597,1.584-5.427,1.584-8.497C152.555,18.167,152.027,15.346,150.971,12.75z"/>
	<polygon fill="#FFFFFF" points="66.801,0 66.801,42.466 75.789,42.466 75.789,8.61 66.871,0 	"/>
	<path fill="#FFFFFF" d="M54.1,0h-2.67l-1.312,5.06l-5.057,19.217c-0.176,0.683-0.348,1.411-0.506,2.185c-0.17,0.783-0.33,1.598-0.482,2.454
		c-0.186-0.878-0.383-1.697-0.619-2.464c-0.229-0.771-0.453-1.492-0.658-2.175L36.986,5.418L35.576,0h-2.871h-1.189h-0.465h-1.266
		h-2.797L25.693,4.99l-5.988,19.287c-0.215,0.724-0.439,1.481-0.672,2.29c-0.232,0.808-0.451,1.666-0.641,2.576
		c-0.102-0.887-0.246-1.747-0.439-2.563c-0.193-0.814-0.387-1.579-0.584-2.303L12.422,5.475l0,0L10.998,0H8.281H6.477H0
		l13.115,42.466h8.922l8.104-26.318c0.133-0.411,0.273-0.856,0.422-1.341c0.141-0.486,0.285-1.002,0.418-1.549
		c0.135,0.547,0.281,1.062,0.43,1.549c0.145,0.484,0.281,0.93,0.416,1.341l7.996,26.318h8.912L61.85,0h-5.889H54.1z"/>
</g>
</svg>
